<svg width="1388" height="297" viewBox="0 0 1388 297" fill="none" xmlns="http://www.w3.org/2000/svg">
<path d="M532.512 60.4436L554.899 14.9103H592.614L554.338 82.8192L593.637 151.872H555.562L532.532 105.495L509.502 151.872H471.507L510.726 82.8192L472.551 14.9103H510.164L532.552 60.4436H532.512Z" fill="white"/>
<path d="M652.354 103.428H634.48V151.872H601.481V14.9103H655.363C671.592 14.9103 684.291 18.5024 693.439 25.7066C702.586 32.9109 707.16 43.0851 707.16 56.2495C707.16 65.7816 705.234 73.6681 701.382 79.9294C697.531 86.1901 691.493 91.2674 683.288 95.1402L711.874 150.447V151.852H676.528L652.354 103.408V103.428ZM634.48 78.0427H655.363C661.622 78.0427 666.357 76.3973 669.506 73.0861C672.675 69.7951 674.261 65.1795 674.261 59.2796C674.261 53.3798 672.655 48.7442 669.466 45.3728C666.276 42.0015 661.562 40.3359 655.363 40.3359H634.48V78.0627V78.0427Z" fill="white"/>
<path d="M756.245 105.415V151.892H723.247V14.9103H777.874C788.347 14.9103 797.61 16.8368 805.656 20.6898C813.702 24.5427 819.937 30.0413 824.376 37.1451C828.807 44.2491 830.996 52.3363 830.996 61.3667C830.996 74.7319 826.216 85.4076 816.649 93.3946C807.081 101.382 793.981 105.395 777.295 105.395H756.23L756.245 105.415ZM756.245 79.9093H777.874C784.272 79.9093 789.148 78.3041 792.496 75.1128C795.851 71.9223 797.536 67.407 797.536 61.5674C797.536 55.1658 795.806 50.0686 792.355 46.2358C788.904 42.4028 784.213 40.4563 778.252 40.3961H756.245V79.9093Z" fill="white"/>
<path d="M879.68 126.486H937.138V151.892H846.68V14.9103H879.68V126.466V126.486Z" fill="white"/>
<path d="M1076.22 93.7555H1024.3V126.486H1085.6V151.892H991.277V14.9103H1085.79V40.3961H1024.28V69.2733H1076.2V93.7354L1076.22 93.7555Z" fill="white"/>
<path d="M1156.06 114.626L1183.32 14.9103H1220.19L1174.11 151.872H1138L1092.3 14.9103H1128.87L1156.06 114.626Z" fill="white"/>
<path d="M1272.53 14.9103L1303.09 110.191L1333.56 14.9103H1377.01V151.872H1343.91V119.884L1347.09 54.4233L1314 151.872H1292.17L1258.97 54.323L1262.16 119.884V151.872H1229.16V14.9103H1272.51H1272.53Z" fill="white"/>
<path d="M222.695 163.591C248.112 163.591 272.766 172.582 291.543 190.2L396.762 288.792H346.309L266.528 214.061C254.792 203.104 239.145 197.244 222.715 197.244C206.285 197.244 190.638 203.104 178.902 214.061L99.121 288.792H48.6683L153.887 190.2C172.663 172.602 197.298 163.591 222.735 163.591H222.695ZM222.695 140.132C197.278 140.132 172.623 131.142 153.847 113.522L48.6483 14.9103H99.101L178.882 89.642C190.618 100.599 206.265 106.458 222.695 106.458C239.125 106.458 254.772 100.599 266.508 89.642L346.289 14.9103H396.742L291.523 113.502C272.746 131.102 248.112 140.112 222.675 140.112L222.695 140.132Z" fill="white"/>
<path d="M134.689 151.872L24.7765 244.985C16.5717 252.41 7.18326 248.898 7.18326 237.941V65.7815C7.18326 54.8246 16.5717 51.3128 24.7765 58.7378L134.689 151.851V151.872Z" fill="white"/>
<path d="M527.675 266.276C527.675 262.443 526.332 259.493 523.643 257.427C520.955 255.36 516.101 253.273 509.099 251.145C502.078 249.038 496.521 246.69 492.369 244.102C484.445 239.125 480.473 232.623 480.473 224.616C480.473 217.593 483.322 211.833 489.038 207.278C494.756 202.743 502.178 200.455 511.306 200.455C517.365 200.455 522.761 201.578 527.495 203.806C532.23 206.033 535.961 209.225 538.669 213.338C541.377 217.452 542.741 222.028 542.741 227.045H527.675C527.675 222.509 526.251 218.937 523.403 216.368C520.554 213.8 516.481 212.515 511.186 212.515C506.251 212.515 502.419 213.579 499.691 215.686C496.963 217.793 495.598 220.743 495.598 224.536C495.598 227.727 497.063 230.375 500.012 232.523C502.961 234.65 507.816 236.737 514.596 238.743C521.377 240.75 526.813 243.038 530.906 245.627C534.998 248.195 538.007 251.145 539.933 254.477C541.858 257.808 542.802 261.701 542.802 266.156C542.802 273.4 540.033 279.18 534.456 283.455C528.899 287.728 521.357 289.876 511.848 289.876C505.549 289.876 499.771 288.712 494.495 286.384C489.219 284.056 485.107 280.825 482.178 276.732C479.249 272.638 477.784 267.842 477.784 262.383H492.911C492.911 267.32 494.535 271.153 497.805 273.862C501.075 276.571 505.749 277.936 511.848 277.936C517.103 277.936 521.055 276.872 523.704 274.745C526.352 272.618 527.675 269.788 527.675 266.297V266.276Z" fill="white"/>
<path d="M570.786 288.692H555.72V201.659H570.786V288.692Z" fill="white"/>
<path d="M588.139 288.692V201.659H613.837C621.52 201.659 628.341 203.365 634.299 206.796C640.257 210.228 644.871 215.084 648.141 221.385C651.411 227.687 653.035 234.891 653.035 243.018V247.373C653.035 255.62 651.391 262.865 648.101 269.126C644.811 275.387 640.137 280.203 634.058 283.595C627.98 286.986 621.019 288.672 613.175 288.672H588.139V288.692ZM603.265 213.86V276.611H613.115C621.039 276.611 627.117 274.123 631.37 269.166C635.603 264.21 637.77 257.085 637.85 247.795V242.958C637.85 233.506 635.803 226.302 631.691 221.325C627.579 216.348 621.641 213.86 613.817 213.86H603.245H603.265Z" fill="white"/>
<path d="M717.712 249.841H681.984V276.611H723.75V288.692H666.858V201.659H723.329V213.86H681.984V237.881H717.712V249.841Z" fill="white"/>
<path d="M801.203 260.356C800.319 269.648 796.912 276.892 790.93 282.09C784.955 287.287 777.013 289.896 767.104 289.896C760.156 289.896 754.063 288.25 748.785 284.96C743.508 281.668 739.437 276.993 736.568 270.952C733.699 264.892 732.215 257.868 732.094 249.861V241.734C732.094 233.526 733.539 226.302 736.448 220.041C739.356 213.78 743.53 208.963 748.963 205.572C754.404 202.181 760.683 200.495 767.824 200.495C777.428 200.495 785.155 203.103 791.012 208.301C796.868 213.498 800.282 220.863 801.225 230.396H786.157C785.437 224.135 783.611 219.62 780.679 216.85C777.755 214.081 773.457 212.696 767.802 212.696C761.225 212.696 756.185 215.104 752.66 219.9C749.127 224.696 747.323 231.76 747.241 241.051V248.778C747.241 258.19 748.926 265.373 752.296 270.31C755.666 275.247 760.602 277.735 767.082 277.735C773.02 277.735 777.473 276.39 780.464 273.721C783.448 271.053 785.333 266.618 786.135 260.397H801.203V260.356Z" fill="white"/>
<path d="M882.567 288.692H867.507V250.082H828.606V288.692H813.479V201.659H828.606V237.881H867.507V201.659H882.567V288.692Z" fill="white"/>
<path d="M948.969 268.423H915.271L908.205 288.692H892.499L925.358 201.659H938.919L971.838 288.692H956.072L948.969 268.423ZM919.524 256.223H944.738L932.12 220.121L919.524 256.223Z" fill="white"/>
<path d="M996.45 288.692H981.39V201.659H996.45V288.692Z" fill="white"/>
<path d="M1082.82 288.692H1067.69L1028.91 226.944V288.692H1013.78V201.659H1028.91L1067.81 263.648V201.659H1082.82V288.692Z" fill="white"/>
</svg>
